#!OML:ASF E:\motion texture\Top Level 1\Subject 1\Session 1\male.ASF
:FULLY-SPECIFIED
:DEGREES
268
root 31.7514 17.6456 6.33123 -10.9809 -82.9801 10.2263
lowerback 4.34056 -4.57923 -3.48412
upperback -0.402182 -6.25742 1.3421
thorax -2.31669 -3.07198 3.69
lowerneck -22.2464 -3.47937 -5.82685
upperneck 15.5368 -4.41752 7.15232
head 8.80293 -1.66047 2.78314
rclavicle -4.18473e-014 1.27222e-014
rhumerus -55.9837 0.670539 -67.1369
rradius 33.492
rwrist 3.62842
rhand -10.1548 -8.17607
rfingers 7.12502
rthumb 15.8346 -37.5485
lclavicle -4.18473e-014 1.27222e-014
lhumerus -4.20488 -13.0182 93.5204
lradius 63.8429
lwrist 1.67377
lhand -15.2712 4.22483
lfingers 7.12502
lthumb 10.9032 33.9218
rfemur -69.3961 -10.9485 16.8889
rtibia 66.8059
rfoot 187.718 4.07559
rtoes 16.3165
lfemur -5.21621 -6.43868 -26.6439
ltibia 21.8276
lfoot 167.533 -182.917
ltoes 8.10854
269
root 31.6262 17.6652 6.32786 -10.4783 -82.8638 9.60513
lowerback 4.76457 -4.7135 -3.49807
upperback -0.605776 -6.45119 1.43415
thorax -2.73564 -3.15347 3.85462
lowerneck -22.3536 -3.38928 -5.74716
upperneck 15.9628 -4.31225 7.02078
head 8.95495 -1.61552 2.74343
rclavicle -1.37752e-014 -2.38542e-015
rhumerus -57.4166 0.949519 -66.1994
rradius 33.7143
rwrist 3.43171
rhand -10.1405 -8.26406
rfingers 7.12502
rthumb 15.8483 -37.6354
lclavicle -1.37752e-014 -2.38542e-015
lhumerus -3.30453 -13.1263 93.0696
lradius 64.2874
lwrist 1.47559
lhand -15.2406 4.10517
lfingers 7.12502
lthumb 10.9327 33.8005
rfemur -71.814 -10.6684 17.0546
rtibia 66.8628
rfoot 187.676 3.74471
rtoes 16.2133
lfemur -4.35159 -6.4827 -26.5796
ltibia 21.3202
lfoot 167.43 -182.959
ltoes 7.93171
270
root 31.4997 17.6841 6.32443 -10.0381 -82.7923 9.05332
lowerback 5.2092 -4.83291 -3.50294
upperback -0.859894 -6.62545 1.52991
thorax -3.22083 -3.22169 4.02576
lowerneck -22.3557 -3.29442 -5.68924
upperneck 16.3891 -4.19793 6.88559
head 9.08958 -1.57093 2.70782
rclavicle -8.32411e-015 9.93923e-015
rhumerus -58.8452 1.28597 -65.2749
rradius 33.9053
rwrist 3.28938
rhand -10.1263 -8.35567
rfingers 7.12502
rthumb 15.862 -37.726
lclavicle -8.32411e-015 9.93923e-015
lhumerus -2.57944 -13.1681 92.6528
lradius 64.693
lwrist 1.35475
lhand -15.22 4.01543
lfingers 7.12502
lthumb 10.9525 33.7097
rfemur -74.081 -10.3484 17.1965
rtibia 67.139
rfoot 187.664 3.37306
rtoes 15.9584
lfemur -3.49387 -6.48793 -26.5
ltibia 20.8137
lfoot 167.334 -182.996
ltoes 7.72628
271
root 31.3723 17.7022 6.32103 -9.64535 -82.756 8.54338
lowerback 5.56829 -4.9386 -3.49268
upperback -1.05549 -6.77722 1.61077
thorax -3.60314 -3.28225 4.16258
lowerneck -22.3765 -3.20584 -5.62791
upperneck 16.7729 -4.09294 6.76679
head 9.21455 -1.52906 2.67556
rclavicle 8.50115e-015 -7.55382e-015
rhumerus -60.1294 1.58116 -64.392
rradius 34.0678
rwrist 3.20777
rhand -10.1011 -8.42444
rfingers 7.12502
rthumb 15.8863 -37.7928
lclavicle 8.50115e-015 -7.55382e-015
lhumerus -1.85707 -13.1948 92.1991
lradius 65.0568
lwrist 1.33773
lhand -15.2013 3.95453
lfingers 7.12502
lthumb 10.9706 33.6479
rfemur -76.1725 -10.0051 17.3204
rtibia 67.6133
rfoot 187.684 2.97047
rtoes 15.6876
lfemur -2.63185 -6.46279 -26.409
ltibia 20.3078
lfoot 167.249 -183.031
ltoes 7.47752
272
root 31.2445 17.7193 6.31768 -9.28516 -82.7508 8.05425
lowerback 5.84115 -5.04249 -3.47561
upperback -1.1964 -6.92266 1.68498
thorax -3.88247 -3.34345 4.27786
lowerneck -22.3446 -3.10985 -5.559
upperneck 17.0667 -3.97757 6.6507
head 9.29888 -1.4834 2.64378
rclavicle -2.04562e-014 -1.23246e-014
rhumerus -61.2453 1.85159 -63.5405
rradius 34.1587
rwrist 3.18783
rhand -10.0514 -8.44814
rfingers 7.12502
rthumb 15.9341 -37.8127
lclavicle -2.04562e-014 -1.23246e-014
lhumerus -1.166 -13.1804 91.7099
lradius 65.4005
lwrist 1.4191
lhand -15.2009 3.91895
lfingers 7.12502
lthumb 10.971 33.6123
rfemur -78.0722 -9.64683 17.4341
rtibia 68.2621
rfoot 187.718 2.55945
rtoes 15.3127
lfemur -1.76411 -6.42337 -26.3115
ltibia 19.8127
lfoot 167.175 -183.053
ltoes 7.19569
273
root 31.1167 17.7353 6.31443 -9.00785 -82.7756 7.63763
lowerback 5.93941 -5.13969 -3.4643
upperback -1.20338 -7.05301 1.74173
thorax -3.9269 -3.40668 4.35029
lowerneck -22.3626 -3.0155 -5.46044
upperneck 17.2348 -3.86599 6.54765
head 9.34857 -1.43557 2.60966
rclavicle 5.14914e-014 -9.54166e-015
rhumerus -62.1043 2.0161 -62.7391
rradius 34.2032
rwrist 3.21054
rhand -9.98001 -8.40398
rfingers 7.12502
rthumb 16.0029 -37.763
lclavicle 5.14914e-014 -9.54166e-015
lhumerus -0.368546 -13.1602 91.1385
lradius 65.7202
lwrist 1.57211
lhand -15.1858 3.89786
lfingers 7.12502
lthumb 10.9855 33.5904
rfemur -79.7757 -9.28052 17.5378
rtibia 69.0587
rfoot 187.768 2.16419
rtoes 14.8278
lfemur -0.901713 -6.37168 -26.2191
ltibia 19.3457
lfoot 167.114 -183.06
ltoes 6.87284
274
root 30.9889 17.75 6.31133 -8.83237 -82.8251 7.31778
lowerback 6.0351 -5.23014 -3.46041
upperback -1.20304 -7.17483 1.79453
thorax -3.96246 -3.4659 4.42162
lowerneck -22.3433 -2.91876 -5.3575
upperneck 17.3508 -3.7501 6.44054
head 9.37339 -1.38685 2.57355
rclavicle 3.86326e-014 7.95139e-016
rhumerus -62.8574 2.16766 -61.9626
rradius 34.1904
rwrist 3.25577
rhand -9.89276 -8.29159
rfingers 7.12502
rthumb 16.0869 -37.6439
lclavicle 3.86326e-014 7.95139e-016
lhumerus 0.327691 -13.1024 90.5649
lradius 66.0442
lwrist 1.73357
lhand -15.1684 3.87833
lfingers 7.12502
lthumb 11.0023 33.57
rfemur -81.2825 -8.9145 17.6378
rtibia 69.9774
rfoot 187.836 1.82225
rtoes 14.2788
lfemur -0.0568973 -6.31263 -26.1387
ltibia 18.9189
lfoot 167.065 -183.054
ltoes 6.50209
